<svg width="111" height="151" xmlns="http://www.w3.org/2000/svg" xmlns:xlink="http://www.w3.org/1999/xlink">
  <defs>
    <linearGradient x1="-3.48177083%" y1="17.0266727%" x2="100.833333%" y2="92.8868033%" id="firebase-grad">
      <stop stop-color="#FFF" stop-opacity=".1" offset="0%" />
      <stop stop-color="#FFF" stop-opacity="0" offset="100%" />
    </linearGradient>
    <path
      d="M95.7984919 33.6246194c-.2125663-1.2635449-1.1136524-2.3039602-2.3369794-2.6983318-1.223327-.3943715-2.5652523-.0770498-3.480302.8229785L72.2727216 49.5651223l-14.0299139-26.510676c-.5626159-1.1354908-1.7233165-1.8543199-2.9941889-1.8543199-1.2708725 0-2.431573.7188291-2.994189 1.8543199l-7.6137947 14.4913663L25.3922776 1.91410025C23.852409-.984173 19.489448-.21698302 18.9761585 3.02226355L.4977353 121.16952l49.5324399 27.704083c3.1169932 1.705 6.8921527 1.705 10.0091459 0l49.9601809-27.704083-14.2010101-87.5449006Z"
      id="firebase-shape" />
  </defs>
  <g transform="translate(.19337 -.022099)" fill="none" fill-rule="evenodd">
    <mask id="firebase-mask" fill="#fff">
      <use xlink:href="#firebase-shape" />
    </mask>
    <use fill="url(#firebase-grad)" fill-rule="nonzero" xlink:href="#firebase-shape" />
    <g mask="url(#firebase-mask)" fill-rule="nonzero">
      <path
        d="M.49773544 121.16952 19.0617069 3.02226369c.5132895-3.23924658 4.8762505-4.00643656 6.4161191-1.1081633L44.6406352 37.5458127 52.25443 23.0544465c.58861-1.1296021 1.759619-1.8385019 3.036963-1.8385019 1.2773441 0 2.4483531.7088998 3.0369631 1.8385019L109.999502 121.16952H.49773544Z"
        fill="#FFA000" />
      <path fill="#F57C00" d="M64.4878305 75.1381214 44.555087 37.54581246.49773544 121.1695201z" />
      <path
        d="M109.999502 121.1695203 95.7984916 33.62461936c-.2125663-1.26354486-1.1136524-2.3039602-2.3369794-2.69833175-1.223327-.39437155-2.5652523-.07704977-3.480302.82297847L.497735 121.1695203l49.5324399 27.7040827c3.1169932 1.705 6.8921527 1.705 10.0091459 0l49.9601812-27.7040827Z"
        fill="#FFCA28" />
      <path
        d="M95.798492 33.6246195c-.212566-1.2635449-1.113652-2.3039602-2.3369794-2.6983317-1.223327-.3943716-2.5652522-.0770498-3.480302.8229784L72.2727217 49.5651224 58.2428079 23.0544465c-.562616-1.1354909-1.7233165-1.8543199-2.994189-1.8543199-1.2708724 0-2.431573.718829-2.9941889 1.8543199l-7.6137948 14.4913662L25.3922778 1.91410039c-1.5398686-2.89827326-5.9028297-2.13108328-6.4161192 1.1081633L.49773544 121.16952H.41218718l.08554826.085244.51328953.25573L72.1871735 50.4175557l17.7940371-17.7306128c.9150498-.9000283 2.256975-1.2173501 3.480302-.8229785 1.2233274.3943715 2.1244134 1.4347869 2.3369794 2.6983317l14.029914 86.6924679.171096-.085244-14.20101-87.5449005ZM.66883195 120.999034 19.0617069 3.874697c.5132895-3.23924658 4.8762505-4.00643656 6.4161191-1.1081633L44.6406352 38.398246 52.25443 23.9068798c.58861-1.1296021 1.759619-1.8385019 3.036963-1.8385019 1.2773441 0 2.4483531.7088998 3.0369631 1.8385019L72.016077 49.8208524.66883195 120.999034Z"
        fill-opacity=".2" fill="#FFF" />
      <path
        d="M60.0393212 148.02117c-3.1169931 1.705-6.8921527 1.705-10.0091459 0L.58328369 120.40233l-.08554825.76719 49.53243986 27.704083c3.1169932 1.705 6.8921528 1.705 10.0091459 0l49.9601808-27.704083-.085548-.76719-49.8746328 27.61884Z"
        fill="#A52714" opacity=".2" />
    </g>
    <path mask="url(#firebase-mask)" d="M-26.8777064-6.69547618H137.374944V156.971719H-26.8777064z" />
    <path
      d="M95.7984919 33.6246194c-.2125663-1.2635449-1.1136524-2.3039602-2.3369794-2.6983318-1.223327-.3943715-2.5652523-.0770498-3.480302.8229785L72.2727216 49.5651223l-14.0299139-26.510676c-.5626159-1.1354908-1.7233165-1.8543199-2.9941889-1.8543199-1.2708725 0-2.431573.7188291-2.994189 1.8543199l-7.6137947 14.4913663L25.3922776 1.91410025C23.852409-.984173 19.489448-.21698302 18.9761585 3.02226355L.4977353 121.16952l49.5324399 27.704083c3.1169932 1.705 6.8921527 1.705 10.0091459 0l49.9601809-27.704083-14.2010101-87.5449006Z"
      fill="url(#firebase-grad)" fill-rule="nonzero" mask="url(#firebase-mask)" />
  </g>
</svg>
