<svg viewBox="0 0 100 20" fill="#004281" xmlns="http://www.w3.org/2000/svg"><path fill-rule="evenodd" clip-rule="evenodd" d="M58.882 6.28l-2.165 8.692c-.302 1.218 0 1.5.967 1.5h2.296l-.574 2.314h-5.67c-2.185 0-3.243-1.278-2.528-4.156l2.78-11.137 6.374-3.12-.906 3.593h3.112l-.574 2.314h-3.112zm-17.452.875c.151-.594.534-.875 1.188-.875h8.238l.574-2.315H40.1c-2.255 0-3.655 1.258-4.34 3.975l-.413 1.66c-.684 2.716.101 4.004 2.347 4.004h4.733c.715 0 1.057.372.916.966l-.231.935c-.141.594-.675.966-1.39.966h-7.986l-.574 2.314h10.856c2.508 0 4.028-1.096 4.572-3.28l.796-3.189c.543-2.193-.434-3.28-2.93-3.28h-4.523c-.664 0-.906-.281-.755-.875l.252-1.006zm45.61 0c.15-.594.533-.875 1.188-.875h8.237l.574-2.315H85.72c-2.256 0-3.666 1.258-4.34 3.975l-.413 1.66c-.675 2.716.1 4.004 2.346 4.004h4.733c.715 0 1.068.372.917.966l-.232.935c-.15.594-.675.966-1.4.966h-7.986l-.584 2.314h10.856c2.508 0 4.028-1.096 4.572-3.28l.796-3.189c.544-2.193-.433-3.28-2.94-3.28h-4.512c-.655 0-.907-.281-.755-.875l.261-1.006zM8.71 18.785L20.011.858h-3.052l-8.68 14.266h-.031L6.455.857H.091l2.497 17.929h6.123zm13.847-14.82h8.167c2.498 0 3.384 1.228 2.71 3.944l-1.39 5.564h-9.96l-.504 2.032c-.15.594.192.966.917.966h8.801l-.574 2.314H18.862c-2.507 0-3.383-1.227-2.709-3.944L17.886 7.9c.674-2.716 2.165-3.933 4.672-3.933zm4.471 7.194l.977-3.904c.151-.593-.201-.975-.926-.965h-2.276c-.715 0-1.007.271-1.198 1.056l-.947 3.813h4.37zm49.305-7.194h-11.35l-.573 2.315h8.298c.715 0 1.067.372.916.965l-.443 1.781H66.98c-2.498 0-4.029 1.097-4.572 3.28l-.806 3.19c-.544 2.193.433 3.28 2.94 3.28h11.783l2.72-10.877c.684-2.706-.202-3.933-2.71-3.933zM71.31 16.471h-3.212c-.726 0-1.068-.372-.917-.966l.796-3.189c.15-.593.684-.966 1.4-.966h3.212l-1.28 5.121zm24.24.07a2.23 2.23 0 002.225 2.244A2.23 2.23 0 00100 16.543a2.23 2.23 0 00-2.226-2.244 2.23 2.23 0 00-2.225 2.244zm.292 0c0-1.086.846-1.971 1.933-1.971 1.088 0 1.934.885 1.934 1.972 0 1.096-.846 1.972-1.934 1.972-1.087 0-1.933-.875-1.933-1.972zm2.8 1.178l-.434-.956a.67.67 0 00.454-.674c0-.392-.272-.754-.796-.754h-.836v2.384h.282v-.895H97.905l.403.895h.332zm-1.31-2.093h.544c.363 0 .504.232.514.453 0 .221-.151.453-.514.453h-.544v-.906z"/></svg>