<svg class="tc-logo" width="28px" height="28px" viewBox="0 0 256 256" version="1.1" xmlns="http://www.w3.org/2000/svg"
  xmlns:xlink="http://www.w3.org/1999/xlink">
  <!-- Generator: Sketch 63.1 (92452) - https://sketch.com -->
  <g id="thunder-file-light" stroke="none" stroke-width="1" fill="none" fill-rule="evenodd">
    <g id="Group" transform="translate(13.000000, 13.000000)">
      <circle id="Oval" stroke="currentColor" stroke-width="22.6518519" cx="114.769087" cy="114.769087" r="114.769087">
      </circle>
      <g id="flash-(4)" transform="translate(59.562082, 31.702398)" fill="currentColor" fill-rule="nonzero">
        <path
          d="M8.63109806,96.3881003 L39.1299462,96.3881003 L32.832697,155.742515 C32.8050775,155.921522 32.7981726,156.451656 32.7981726,156.630663 C32.7981726,161.374334 36.6718094,165.236743 41.4292707,165.236743 C44.135983,165.236743 46.7184076,163.942389 48.4308174,161.649729 L108.751836,75.7335074 C109.863521,74.2532615 110.478055,72.4218876 110.478055,70.5698591 C110.478055,65.8261876 106.604418,61.9637788 101.846957,61.9637788 L64.5191842,61.9637788 L70.7335748,9.61815544 C70.7542894,9.41849437 70.7680992,8.80574145 70.7680992,8.60608038 C70.7750041,3.86240888 66.9013673,0 62.143906,0 C59.4371937,0 56.8547691,1.29435449 55.0871202,3.65586295 L1.72621961,82.6183717 C0.614534182,84.0986175 0,85.9299914 0,87.7820199 C0,92.5256914 3.87363681,96.3881003 8.63109806,96.3881003 L8.63109806,96.3881003 Z"
          id="Path"></path>
      </g>
    </g>
  </g>
</svg>
